<svg xmlns="http://www.w3.org/2000/svg" viewBox="36.6 110.2 30.9 32.9">
  <!-- Бои за Симбирск. Июль 1918 г. -->
  <!-- Сгенерировано scripts/maps/simbirsk_schemes.py — руками
       не править, следующий прогон затрёт. Реки и границы
       скопированы из povolzhye-1918-1919 без перерисовки:
       у схем та же картографическая манера. Пункты поставлены
       по координатам через привязку на якорях (§10). -->
<style type="text/css">.cls-0 {fill:#EDDCC6;}
.cls-1 {fill:#E7C6B5;}
.cls-2 {fill:#F4DF9A;}
.cls-3 {fill:none;stroke:#E0CCAE;stroke-width:0.0512;stroke-dasharray:0.1024,0.1024;}
.cls-4 {fill:none;stroke:#B3B3B3;stroke-width:0.0512;}
.cls-5 {fill:none;stroke:#BEAF97;stroke-width:0.0512;}
.cls-6 {fill:none;stroke:#B1C0C2;stroke-width:0.0768;}
.cls-7 {fill:none;stroke:#000000;stroke-width:0.0768;}
.cls-8 {fill:none;stroke:#0000FF;stroke-width:0.0768;stroke-dasharray:0.3071,0.2047;}
.cls-9 {fill:none;stroke:#FF0000;stroke-width:0.0768;}
.cls-10 {fill:none;stroke:#006837;stroke-width:0.0768;}
.cls-11 {fill:none;stroke:#FF0000;stroke-width:0.0768;stroke-dasharray:0.3071,0.1024,0.1024,0.1024;}
.cls-12 {fill:none;stroke:#0000FF;stroke-width:0.0768;}
.cls-13 {fill:none;stroke:#000000;stroke-width:0.0768;stroke-dasharray:0.3071,0.1024,0.1024,0.1024;}
.cls-14 {fill:none;stroke:#6699CC;stroke-width:0.0768;}
.cls-15 {fill:none;stroke:#336699;stroke-width:0.0768;}
.cls-16 {fill:#336699;}
.cls-17 {fill:none;stroke:#CC9966;stroke-width:0.0512;stroke-dasharray:0.2047,0.1024,0.1024,0.1024;}
.cls-18 {fill:none;stroke:#CC6699;stroke-width:0.0512;}
.cls-19 {fill:none;stroke:#FF0099;stroke-width:0.0512;}
.cls-20 {fill:#FF0099;}
.cls-21 {fill:none;stroke:#003366;stroke-width:0.0512;}
.cls-22 {fill:#003366;}
.cls-23 {fill:none;stroke:#FF0000;stroke-width:0.0768;stroke-linecap:round;}
.cls-24 {fill:none;stroke:#0000FF;stroke-width:0.1024;stroke-linecap:round;stroke-linejoin:round;stroke-miterlimit:10;stroke-dasharray:0.3071,0.2047,0.2047,0.2047,0.2047,0.2047;}
.cls-25 {fill:none;stroke:#006600;stroke-width:0.1024;stroke-linecap:round;stroke-linejoin:round;stroke-miterlimit:10;}
.cls-26 {fill:none;stroke:#FF0000;stroke-width:0.1024;stroke-linecap:round;stroke-linejoin:round;stroke-miterlimit:10;stroke-dasharray:0.3071,0.2047,0.2047,0.2047,0.2047,0.2047;}
.cls-27 {fill:#0000FF;}
.cls-28 {fill:#FF0000;}
.cls-29 {fill:none;stroke:#000000;stroke-width:0.0512;}
.cls-30 {fill:#006699;}
.cls-31 {fill:#C1272D;}
.cls-32 {fill:#CA001B;}
.cls-33 {fill:#000000;}
.cls-34 {fill:none;stroke:#006699;stroke-width:0.0512;}</style>
<defs>
  <marker id="head-cls-9" viewBox="0 0 10 10" refX="8" refY="5" markerWidth="5" markerHeight="5" orient="auto-start-reverse"><path d="M0,0 L10,5 L0,10 z" fill="#FF0000"/></marker>
  <marker id="head-cls-12" viewBox="0 0 10 10" refX="8" refY="5" markerWidth="5" markerHeight="5" orient="auto-start-reverse"><path d="M0,0 L10,5 L0,10 z" fill="#0000FF"/></marker>
</defs>
<g id="background_paper">
  <rect class="cls-0" x="36.6" y="110.2" width="30.9" height="32.9"/>
</g>
<g id="rivers">
  <path class="cls-6" d="m14.1 135.8c1.1-0.9 2.5-2.3 5-1.8 3.2 0.4 2.9 0 4.8-1.2 1.5-1.1 2.7-1.3 2.9-2.2"/>
  <path class="cls-6" d="m16.1 164c2.3-1.2 4.8-1.6 6.8-2.3 3-1.1 2.5-2 3.9-2.7"/>
  <path class="cls-6" d="m15.4 120.1c1.2-0.7 0.5-2.7 3.2-2.7s5.9-1.4 5.9-3c0.3-3.6-0.6-7.7-0.9-11.6-2.5-2.7-3.6-5.7-3.6-7.9 1.3-1.4 1.3-2.5-0.9-4.1"/>
  <path class="cls-6" d="m15.4 79"/>
  <path class="cls-6" d="m17.9 40.6c1.2 0.6 2.1-3 3.4-0.5 2.3 1.1 0.3 5.3-5.6 6.8"/>
  <path class="cls-6" d="m184.5 32.6c1.6 0 3.2 0.7 4.1 2.3l2.3 2 0.4 0.9 4.4 0.3 4.1 0.9c1.8 0.4 1.8 2 2.5 4.1 1.1 1.3 2.2 1.1 2.5 0.2 0.9-0.2 0.9 2.5 2.7 1.4 1.3-0.3 0.9 2.2 3.6 2.9"/>
  <path class="cls-6" d="m174.5 66.5 2.1 1.6 2.5 0.2c0.7 2.5 3.4 2.9 7.9 2.3l2.5 1.1 3.9 0.4 2.7-0.6 2.1 2 2.5 0.2 3.2 0.7 1.8-0.2 2.2 0.9 3 0.2 1.6 0.5"/>
  <path class="cls-6" d="m184.5 91.2c1.2-1.5 3.9-2 6.2-1.3 1.1 0.2 2.2-0.2 3.2-0.9h3.4l2-0.9c1.6-1.4 3.2-2.3 5-0.7l2.3-0.5 2-1.3 2.5-0.7"/>
  <path class="cls-6" d="m186.3 112.6c0.5 0.7 2.8 0.5 5 1.8 2.1-0.4 2.6-1.3 4.4-1.8l5.9-1.1 3.2-1.6 3.1-2.3 2.1-0.5 1.1-0.6"/>
  <path class="cls-6" d="m160.9 143.1 2.3-0.7 2.2-2.5 2.5-0.9 3.7-2.8 3.4 1.2 1.6 1.6h2.5l2.7-1.2 2.3-0.9 2.2-0.2 2.1 2 2.3 0.7 3.6-0.4 1.6-0.7 6.1-0.5c1.9-0.9 3.2-1.3 5.5-2.9l1.3-1.4 2.3-0.4"/>
  <path class="cls-6" d="m183.4 158.1c-0.9 3.4-0.5 5 2.5 5.2 3.6 0.9 7.3 0.7 5.7-3.2-2.8-1.1-0.3-2.5-0.3-3.4 0.3-2.3-0.4-4.8-1.5-6.6l-0.3-2.3-0.7-2-1.1-1.4"/>
  <path class="cls-6" d="m175.7 181.9 6.3 1.2 2.5-0.7c-1.6 2.7-5.9 4.1-5 7.5l-0.4 3.6 0.4 4.1 0.5 1.8"/>
  <path class="cls-6" d="m73.6 200.1c0.7-3.4-1.3-4.5-1.3-6.6l0.9-2-0.5-2.5-0.2-4.1 0.4-2.5-0.4-1.4 1.6-3.4 2.5-3 2.7-0.2 2.5-2.5 2.7-0.4 1.6-1.4 2.1-0.9 2.5-0.7 2.2-1.4 2.1 0.3 1.6 0.7 2.7-0.5 2-0.5"/>
  <path class="cls-6" d="m153.4 110.3c2 1.4 4.8 1.2 7.5 0.5 1.6-0.7 3-2.3 3.9-2.3l3.8 0.2 0.9 1.6 0.7 2.1 1.6 1.3h0.9l0.9 1.4 1.8 0.5h2.8l3.6-2.1 2.7-0.7 1.8-0.2"/>
  <path class="cls-6" d="m150.2 122.4 2.7-0.9 1.9-2.1 0.9-2.7 1.8-3.6 1.8-2.3 2.3-0.5v1.2l1.1 1.6-1.1 1.3-0.5 2.5 0.5 3.4 0.9 1.4-1.4 4.8-1.6 1.3 1.2 1.6-0.3 5 0.5 1.8-1.8 0.3-2.5-2.1-1.8-0.4-2.1-2.3-2.5-2.3-2.5-1.3 1.1-3z"/>
  </g>
<g id="admin_borders">
  <path class="cls-3" d="m48.6 199.9-2.1-2.3-2.3-0.7-2.6-1.9-2.5-3.3-2.3-3.5-2.5-0.2-1.2-2.3 0.7-2.1 1.8-0.9 0.2-1.4-0.5-1.6 1.2-1.4 2.3 0.2 1.4 0.5 0.9-2.5v-2.5l1.8-2.5 0.7-3.7 1.6-3.9 2.1-4.9 1.4-4.4-2.1 0.4h-2.5l-3 0.7-3.7 2.1-2.9 1.2-3 0.7-2-0.7-2.5-2.5 1.2-2.3 2.1-0.9 3.5 0.2 1.8-1.4 2.8-2.1 0.9-2.3v-1.7l2.1-1.4 0.6-2.2 2.5-0.9 3-0.9 1.6-1.6 4.4 0.9 2.6-0.9 2.8-0.2 2.2-1.2 0.9-2.3 2.5-1.3 3.2 0.2 2.3 0.2 2.7 0.9 2.1 1.6 2.5 1.4 2.2 0.7 1.2 1.8 0.9 3 1.3 2.2 3.2 5 2.1 2.1 2 1.9 3 3.1 2.9 2.5 3.4 1.1 2.3 1.8v1.6l-1.4 1.3 2.1 0.5 3.2-0.7 2.7-0.2 2.8-0.9 2.7-0.7 2.9 0.5 3.2-0.5 2.3-0.9 1.8-0.2 3.2 1.1 2.7 3.7 2.3 1.3 2.9 0.2 4.1 0.3 3.6 1.1 3.7 1.4 3.8 0.2 2.8-0.5 2.5-1.6 1.3-2.4-2.7-0.5-2.3 1.4-2.9 0.2-4.1-0.7-3-0.9-2.5-0.7-3.6-2.5-2-2.3-3-0.6-3.4-1.4-2.3-1.1-2.3-0.3-2.7 0.3-2.3 0.7-1.6 1.8-2.7 0.6-3.4-0.6h-2.7l-3.2-0.7-3-1.1-1.3-2.1v-1.8l-2.1-0.9-2-1.6-1.8-1.4-3.2-2-2.3-1.8-1.6-1.4-1.3-3-1.6-1.8-1.4-1.8-2.9-2.3-1.6-1.6-1.6-1.8-3-0.7-2.9-1.1-2.8-0.2-3.1-0.3-2.5 0.3-2.1 0.9-2.7 2-2.1 2.1-3.1-0.7-3.2-0.5-2.5-0.9 2.9-0.9 0.7-2-1.6-4.3-1.3-3.9-1.9-3.9-1.8-3.2 2.3-2.5 3.4-3.1 0.9-3 2.1-3.4 2.5-2.5 2.9-2 1.8-0.7 1.8-2.1 3.2-1.1 2.1 0.2 3.2-0.2 1.3-1.1 3.7-0.3 3.4-1.6 1.3-2 2.8-0.2 2.9 0.9 2.3-0.7 1.1-2.3 2.3-0.9 3.2-0.4 2.5-1.6 2.7-1.6 2.7-1.2 1.9 2.8 1.1 0.4-0.5 1.2 0.7 1.3 2.1 0.3 1.8-1.2 1.3 0.2 0.9 1.4 1 0.7 0.6 1.8 3.9 0.5 1.1 0.9 2.5 1.3 1.2 1.6 1.3 2.5 1.2 1.4 1.3 0.7-0.6 1.1 2 0.5-0.2 1.3 1.3 0.7 0.5 1.4-0.2 1.6 1.1 1.3 1.8 0.9 2.5 1.2 0.9 2.5-0.2 2.5-0.7 2.2-1.1 3.4-0.9 2.3-0.7 2.5 0.2 2.3 1.2 1.1 2.9 0.7 3.4 1.4 3.4 1.1 2.3 0.9-1.6 2.7-2.5 0.7-1.6 1.8-1.6 0.3-1.8-1.2-2 0.3-1.6 1.1-2.3 0.5-1.6-1.2 0.2-2.3 1.6-3.4 0.5-2-0.9-1.8-1.6-1.8-2.1-1.4-1.8-4.1-0.7-2.3-1.3-1.3 0.7-1.9 1.1-1.3v-2.1l-1.1-2.2-1.4-2.1-1.8-2.3-2.3-1.8-1.6-1.1-2-1.1-2.8 0.2-2.5 1.1-3.1 0.9-2.3 0.5-2.5 1.3-1.6 1.4-1.8 1.8-1.6 1.2-2.7-0.3-2.1 0.3-2.3-0.3-1.3 1.9 0.4 1.5 1.4 1.2 1.8 0.7-0.7 1.6-1.6 1.3h-1.3l-1.8 1.6-1.6 1.6-0.9 1.6v2.7l1.3 2.5 1.4 2.3 1.6 2.3 0.2 2.2 0.2 1.6-0.4 2.5-1.6 1.6-2.3 0.5-1.8-2.1-1.8-1.3"/>
  <path class="cls-3" d="m126.3 13.1 3.2 7.2-3.2 4.1-0.6 5.3 0.9 6.8 2.2 2.5-1.1 1.3 0.5 2.1 1.1 0.7 0.7 2.3 2 1.5 2.8 1.2 3.4 1.1 3.1 1.4 6.4 2.2 2.7 1.4 2.1 1.6 2 1.1 2.8 1.4 2.7 1.1 1.6 2.3 0.4 1.8-1.8 1.6-2.5-0.2-1.8-0.7-1.6 0.7-0.7 2 1.2 1.8 2.2 1.2 0.7 2.2 1.4 1.9 2.7 0.2 1.4 1.4-1.2 2.2-1.6 1.4 0.5 1.6h1.6l2 0.7h1.6l1.2 1.3 1.5 0.9 0.5 2.3 1.4 3.2"/>
  <path class="cls-3" d="m124.8 12.3 33.4 0.1 4.3 1.6 2 2.5 0.5 2.2 1.6 3.2v3.9l0.9 3.2v2.5l-2.5 2.5-0.5 2.5 0.3 2.9-1.6 2.3 1.3 3 2.1 2.9 2 3 0.9 2.7 1.4 2.1 1.8 2.4 2.1 2.3 2.7 1.4 2.9 1.3 2.8 1.6 2.7 1.2 2.9 1.3 2.1 1.8 2 1.2 2.8 1.1 2.2 0.7 2.8 1.1 2.7 1.2 2.3 0.2 2.5 0.7 2.7 0.4 1.8 0.7-0.4 18.6-0.5 16.2-2.7 0.7-2.5 1.6-3.2-0.5-3.6-0.2-3 0.2-2.9 0.5h-2.3l-2.1-1.6-2.7-1.2-1.4-0.9-0.9-2.9-0.6-1.9-0.3-2.5-0.4-2.7 0.2-2.5 0.5-2.9-0.7-2.3-2.1-2.7-2.7-2.1-2.7-1.8-2.1-2-2.5-3-1.3-2.7-1.2-1.8 0.2-2.3 0.7-2.3-1.1-2-1.8-2.1-2.5-1.6-2.5-0.4h-2.1l-2.2-0.7-1.4-0.7-1.1-1.8 1.1-2.3 1.1-1.6-1.8-1.3-2.5-0.5-2-1.3-1.9-1.4-2-0.9-2-1.4-2.3-1.3-2.7-0.7-2.5-1.4-2.1-1.1-1.8-1.1-1.1-2.3-1.6-1.6-0.9-2.1 0.4-0.7 1.8 0.7 3.2 0.3 3.4-0.3h2.7l2.8 0.5 2.5 0.7 2 1.8 2.1 0.7 1.3 2.3 0.5 2.2-0.9 3-1.2 2.2-1.8 2.1-1.3 2 1.3 1.4h2.3 2.7l1.6-0.5 2.1-0.9 1.3-1.5 1.4-1.2 0.9-2.5 1.4-2 0.2-2.1-0.2-2.2-1.2-2.3 1.4-1.6 3.6-0.9 2.5-1.6 0.9-0.7 3-0.2 2.7-1.2 2.1-1.8 2.5-2 1.8-2.8-1.8-2.7-3.2 0.3-3 0.4-2.5 0.7-1.6 1.3-2-1.3-0.9-2.5v-2.1l-0.5-2.9-0.9-2.5-0.7-2.5-2-2.5-3.6-1.7"/>
  <path class="cls-4" d="m91.6 13.3c-2.4 0-3.1 3.9-1.2 5.7s2.5 4.1 2.5 6.1c1.4 1.6 2.1 3.6 1.9 7.5 2 2.1 2.9 3 2 7.3 3 1.1 3-0.9 3.4 4.5 0 1.4 0.9 2.5 1.6 2.6"/>
  <path class="cls-5" d="m82.3 34.9c1.3 4.8 4 2 3.1-2.3-0.2-6.1 1.9-11.1-5.6-10.9-2.8 0-4.1 1.6-6.4 1.4-1.6-0.3-5-1.2-3.9 2.5 1.2 2.5-2.7 2-3.2 3.8-0.9 3.4-3.1 6.4-7.2 3.2-3-1.6-4.6-0.2-5.7 1.6-1.4 2.3-5 3.4-6.6 5.5-2 3.1 0.7 3.6 1.8 4.3-0.9 1.4-1.8 2.7 0.9 4.5 1.2 0.9 1.2 2.1 1.2 3.9s4.1 3.6 6.1 4.1c0.9 3.4-1.4 3.8 4.1 6.6 1.4 0 3.2 1.3 4.1 2.9 1.8 1.6 2.7 4.1 2.7 6.8 0.5 1.6 3-0.9 3.6 1.6-0.6 2.5 3 3.2 3 6.4 0 2.7 3 2.5 2.3 5.7 1.8 0.9 2.9 2.2-0.3 4.7-0.6 2.3-0.2 4.1 3.5 1.4 2.5-0.9 3.4-0.5 5.4-0.2 2.7-0.7 2.7-2.5 5.2-3.2 1.2-2.3 4.6-2.5 6.2-2.7 2.7-2.5 5.7-2.3 8.4-3.7 1.8-1.1 2.7-2.9 5-3.4 2.9 0.5 4.5 0.3 6.1-1.1 2.5-0.2 5.2-1.4 7.5-1.4 1.6-1.8 2.5-0.4 4.6 0.9l2.2 3 2.3 2-0.7 2.5 3.2 1.6 3-0.4 0.4-1.4 1.4-1.6 1.8 1.6 0.9-2.3h1.6l0.7-1.3-1.1-2.1 0.9-2.7 2.9-1.1 2.1-1.2 2.7 0.5 1.8-1.2 2.5-0.4 1.6 1.1h2.7l1.4 1.2-1.6 2.2 0.2 4.6 3.4-0.9h1.6l1.2 1.3 2 1.2 1.4 4.1 0.2 1.1"/>
  <path class="cls-5" d="m14.3 79.4c2 0 2.5-1.8 4.3-0.9 2.3 0.5 2.5-1.1 5.3-1.6 2.2-0.4 2.9 1.4 3.8 3 1.2 2 5.2 2 6.8 2.2 3 0.3 4.8 2.8 6.6 4.4 2.5 2.2 5.7 2.7 7.5 2.9l3 0.5 0.4 5 2.3 3.6 0.7 3-1.8 2-1.2 1.4-1.8 1.6-1.1 3.4-1.6 1.6-2.1 1.6-0.9 1.8 0.9 3.2 2.1 2.9 1.1 3.4 1.4 3.9 0.7 2-1.2 2.1-2.9 2.9 2.5 0.9 3.2 0.5 3.1 0.7 2.1-0.7 2.7-1.8 2.3-1.8 1.8-0.7h3.6l2.8 0.2 2.9 0.9 3 0.9 1.6 1.8 1.8 1.6 1.6 1.4 1.6 1.8 0.9 2.1 1.6 2.9 1.3 2.1 1.6 1.8 2.3 1.3 3 2.1 2.2 1.6 1.8 1.6 2.1 1.1 1.6 2.5 2.7 1.4 3.2 0.6h2.7l3.4 0.5 2.7-0.5 2.3-2 1.6-1.1 2.7-0.3 2.3 0.3 3.2 1.1 2.5 1.4 2.7 1.1 2.3 2.3 3.6 2 2.5 0.7 3 0.9 4.1 0.7 2.9-0.2 2.3-1.4 2.7 0.5-1.3 2.4-2.5 1.6-2.8 0.5-3.8-0.2-3.9-1.4-3.4-1.1-4.1-0.3-2.9-0.2-2.3-1.3-3-3.7-2.9-1.1-1.8 0.2-2.3 0.9-3.2 0.5-2.9-0.5-3.5 0.5-2.9 1.1-2.3 0.2-3.9 0.9-0.9 1 1.6 2.2 1.9 2.8 2 1.8 2.3 3.2 1.3 1.6 1.4 0.2 1.6-2.3 2 0.7h3.4l5.3 0.4 3.1 1.2 4.1 2.2 4.8 2.3 4.6 1.6 2.7 1.4 0.9 1.6-0.7 2 0.7 2.3 0.5 3.4-1.2 4.1"/>
  <path class="cls-5" d="m15.4 66.5c2.3 1.1 4.1 2.9 4.8 5.6l2.3 2.5-0.2 2.3"/>
  <path class="cls-5" d="m19.1 78.7c-0.9 2.1 2.5 3.2 2.2 5.9-0.6 3-3.8 0-2.7 4.4"/>
  <path class="cls-4" d="m27.5 53.3c-1.8 2.1 0.4 3.9 1.6 5.9l3.2 2.5 1.8 1.8 0.4 4.1 2.1 2.3 1.3 2.5 1.9 2.2 1.8 1.9 3.8 0.9 1.2 2.5 1.8 2.9 1.1 1.8 2.1-0.2 1.6 2.1 3.4-1.6"/>
  </g>
<g id="city_dots">
  <circle class="cls-33" cx="42.71" cy="137.13" r="0.139"/>
  <circle class="cls-33" cx="53.60" cy="130.48" r="0.139"/>
  <circle class="cls-33" cx="55.67" cy="117.45" r="0.139"/>
  <circle class="cls-33" cx="46.74" cy="122.64" r="0.139"/>
  <circle class="cls-33" cx="42.63" cy="116.20" r="0.191"/>
  <circle class="cls-33" cx="61.54" cy="136.13" r="0.139"/>
</g>
<g id="labels_cities">
  <text class="cls-33" x="42.43" y="136.92" text-anchor="end" font-family="'TimesNewRomanPSMT'" font-size="0.580px">Сызрань</text>
  <text class="cls-33" x="53.87" y="130.27" font-family="'TimesNewRomanPSMT'" font-size="0.580px">Ставрополь-на-Волге</text>
  <text class="cls-33" x="55.95" y="117.24" font-family="'TimesNewRomanPSMT'" font-size="0.580px">Мелекесс</text>
  <text class="cls-33" x="47.02" y="122.43" font-family="'TimesNewRomanPSMT'" font-size="0.580px">Сенгилей</text>
  <text class="cls-33" x="42.35" y="115.99" text-anchor="end" font-family="'TimesNewRomanPSMT'" font-size="0.580px">Симбирск</text>
  <text class="cls-33" x="61.82" y="135.93" font-family="'TimesNewRomanPSMT'" font-size="0.580px">Самара</text>
</g>
<g id="arrows_kappel">
  <path class="cls-12" d="M42.71,137.13 Q46.44,126.65 42.63,116.20" marker-end="url(#head-cls-12)"/>
</g>
<g id="arrows_stepanov">
  <path class="cls-12" d="M55.67,117.45 Q48.97,118.65 42.63,116.20" marker-end="url(#head-cls-12)"/>
</g>
<g id="arrows_stavropol">
  <path class="cls-12" d="M42.71,137.13 Q48.82,134.89 53.60,130.48" marker-end="url(#head-cls-12)"/>
</g>
</svg>
