<?xml version="1.0" encoding="UTF-8"?>
<svg xmlns="http://www.w3.org/2000/svg" xmlns:xlink="http://www.w3.org/1999/xlink"
     viewBox="0 0 1672 941" width="1672" height="941">
  <!-- Venn background (image layer) -->
  <image id="venn-bg" xlink:href="venn-bg.png" x="0" y="0" width="1672" height="941"/>

  <!-- Annotation: подпись-описание сверху -->
  <g id="ornament">
    <text x="836" y="40" text-anchor="middle" fill="#c8b68a"
          font-family="Playfair Display, Georgia, serif" font-style="italic"
          font-size="18">
      Пересекающиеся области показывают возможные идеологические связи
    </text>
    <text x="836" y="62" text-anchor="middle" fill="#c8b68a"
          font-family="Playfair Display, Georgia, serif" font-style="italic"
          font-size="18">
      и участие партий в нескольких направлениях политической жизни.
    </text>
  </g>

  <!-- Group headers (icon + title + "Справка" button) -->
  <g id="headers">
  <g id="header-red" transform="translate(301 207)">
    <g transform="translate(-26 -60)" fill="#CC2E2E">
      <circle cx="26" cy="26" r="24" fill="rgba(0,0,0,0.45)" stroke="#CC2E2E" stroke-width="1.5"/>
      <g transform="translate(14 14) scale(1.0)" color="#CC2E2E"><path d="M12 2l2.9 6.9L22 10l-5.3 4.6L18.2 22 12 18.3 5.8 22l1.5-7.4L2 10l7.1-1.1L12 2z"/></g>
    </g>
    <text x="0" y="0" text-anchor="middle" fill="#CC2E2E" font-family="Playfair Display, Georgia, serif" font-size="22" font-weight="700" letter-spacing="3">КРАСНЫЕ</text>
    <g transform="translate(0 24)">
      <rect x="-42" y="-16" width="84" height="28" rx="14" fill="none" stroke="#CC2E2E" stroke-width="1"/>
      <text x="0" y="4" text-anchor="middle" fill="#CC2E2E" font-family="Source Serif Pro, serif" font-size="14">Справка</text>
    </g>
  </g>

  <g id="header-rev-dem" transform="translate(686 395)">
    <g transform="translate(-26 -60)" fill="#B36BA8">
      <circle cx="26" cy="26" r="24" fill="rgba(0,0,0,0.45)" stroke="#B36BA8" stroke-width="1.5"/>
      <g transform="translate(14 14) scale(1.0)" color="#B36BA8"><g><circle cx="9" cy="8" r="3.2"/><circle cx="15" cy="8" r="3.2"/><path d="M3.5 20c0-3.3 2.5-6 5.5-6s5.5 2.7 5.5 6M9.5 20c0-3.3 2.5-6 5.5-6s5.5 2.7 5.5 6" fill="none" stroke="currentColor" stroke-width="1.8"/></g></g>
    </g>
    <text x="0" y="0" text-anchor="middle" fill="#B36BA8" font-family="Playfair Display, Georgia, serif" font-size="22" font-weight="700" letter-spacing="3">РЕВОЛЮЦИОННАЯ ДЕМОКРАТИЯ</text>
    <g transform="translate(0 24)">
      <rect x="-42" y="-16" width="84" height="28" rx="14" fill="none" stroke="#B36BA8" stroke-width="1"/>
      <text x="0" y="4" text-anchor="middle" fill="#B36BA8" font-family="Source Serif Pro, serif" font-size="14">Справка</text>
    </g>
  </g>

  <g id="header-white" transform="translate(1287 188)">
    <g transform="translate(-26 -60)" fill="#E3E1DA">
      <circle cx="26" cy="26" r="24" fill="rgba(0,0,0,0.45)" stroke="#E3E1DA" stroke-width="1.5"/>
      <g transform="translate(14 14) scale(1.0)" color="#E3E1DA"><path d="M12 2L4 5v7c0 5.5 3.4 9.5 8 10 4.6-.5 8-4.5 8-10V5l-8-3z" fill="none" stroke="currentColor" stroke-width="1.8"/></g>
    </g>
    <text x="0" y="0" text-anchor="middle" fill="#E3E1DA" font-family="Playfair Display, Georgia, serif" font-size="22" font-weight="700" letter-spacing="3">БЕЛЫЕ</text>
    <g transform="translate(0 24)">
      <rect x="-42" y="-16" width="84" height="28" rx="14" fill="none" stroke="#E3E1DA" stroke-width="1"/>
      <text x="0" y="4" text-anchor="middle" fill="#E3E1DA" font-family="Source Serif Pro, serif" font-size="14">Справка</text>
    </g>
  </g>

  <g id="header-green" transform="translate(268 734)">
    <g transform="translate(-26 -60)" fill="#5AA06A">
      <circle cx="26" cy="26" r="24" fill="rgba(0,0,0,0.45)" stroke="#5AA06A" stroke-width="1.5"/>
      <g transform="translate(14 14) scale(1.0)" color="#5AA06A"><g fill="none" stroke="currentColor" stroke-width="1.8"><circle cx="12" cy="12" r="9.5"/><path d="M6.5 16.5l5.5-9.5 5.5 9.5M8.5 13h7" stroke-linecap="round"/></g></g>
    </g>
    <text x="0" y="0" text-anchor="middle" fill="#5AA06A" font-family="Playfair Display, Georgia, serif" font-size="22" font-weight="700" letter-spacing="3">ЗЕЛЁНЫЕ</text>
    <g transform="translate(0 24)">
      <rect x="-42" y="-16" width="84" height="28" rx="14" fill="none" stroke="#5AA06A" stroke-width="1"/>
      <text x="0" y="4" text-anchor="middle" fill="#5AA06A" font-family="Source Serif Pro, serif" font-size="14">Справка</text>
    </g>
  </g>

  <g id="header-national" transform="translate(1371 678)">
    <g transform="translate(-26 -60)" fill="#E3B650">
      <circle cx="26" cy="26" r="24" fill="rgba(0,0,0,0.45)" stroke="#E3B650" stroke-width="1.5"/>
      <g transform="translate(14 14) scale(1.0)" color="#E3B650"><path d="M5 3v18M5 4h10l2 3h5v8H10l-2-3H5" fill="none" stroke="currentColor" stroke-width="1.8" stroke-linejoin="round"/></g>
    </g>
    <text x="0" y="0" text-anchor="middle" fill="#E3B650" font-family="Playfair Display, Georgia, serif" font-size="22" font-weight="700" letter-spacing="3">НАЦИОНАЛЬНЫЕ ДВИЖЕНИЯ</text>
    <g transform="translate(0 24)">
      <rect x="-42" y="-16" width="84" height="28" rx="14" fill="none" stroke="#E3B650" stroke-width="1"/>
      <text x="0" y="4" text-anchor="middle" fill="#E3B650" font-family="Source Serif Pro, serif" font-size="14">Справка</text>
    </g>
  </g>
  </g>

  <!-- Party chips -->
  <g id="chips">
  <g id="chip-bolsheviks" transform="translate(301 329)">
    <circle cx="0" cy="0" r="5" fill="#CC2E2E"/>
    <text x="14" y="5" fill="#f5f0e0" font-family="Source Serif Pro, serif" font-size="17">Большевики</text>
  </g>

  <g id="chip-left-srs" transform="translate(301 395)">
    <circle cx="0" cy="0" r="5" fill="#CC2E2E"/>
    <text x="14" y="5" fill="#f5f0e0" font-family="Source Serif Pro, serif" font-size="17">Левые эсеры</text>
  </g>

  <g id="chip-srs" transform="translate(535 508)">
    <circle cx="0" cy="0" r="5" fill="#B36BA8"/>
    <text x="14" y="5" fill="#f5f0e0" font-family="Source Serif Pro, serif" font-size="17">Социалисты-революционеры</text>
  </g>

  <g id="chip-mensheviks" transform="translate(535 565)">
    <circle cx="0" cy="0" r="5" fill="#B36BA8"/>
    <text x="14" y="5" fill="#f5f0e0" font-family="Source Serif Pro, serif" font-size="17">Меньшевики</text>
  </g>

  <g id="chip-narodnie-socialists" transform="translate(803 508)">
    <circle cx="0" cy="0" r="5" fill="#B36BA8"/>
    <text x="14" y="5" fill="#f5f0e0" font-family="Source Serif Pro, serif" font-size="17">Трудовая народно-социалистическая партия</text>
  </g>

  <g id="chip-committee-salvation" transform="translate(803 583)">
    <circle cx="0" cy="0" r="5" fill="#B36BA8"/>
    <text x="14" y="5" fill="#f5f0e0" font-family="Source Serif Pro, serif" font-size="17">Комитет спасения Родины и революции</text>
  </g>

  <g id="chip-union-constituent" transform="translate(602 678)">
    <circle cx="0" cy="0" r="5" fill="#B36BA8"/>
    <text x="14" y="5" fill="#f5f0e0" font-family="Source Serif Pro, serif" font-size="17">Союз защиты Учредительного собрания</text>
  </g>

  <g id="chip-cadets" transform="translate(1070 348)">
    <circle cx="0" cy="0" r="5" fill="#E3E1DA"/>
    <text x="14" y="5" fill="#f5f0e0" font-family="Source Serif Pro, serif" font-size="17">Конституционно-демократическая партия</text>
  </g>

  <g id="chip-alekseev-org" transform="translate(1070 414)">
    <circle cx="0" cy="0" r="5" fill="#E3E1DA"/>
    <text x="14" y="5" fill="#f5f0e0" font-family="Source Serif Pro, serif" font-size="17">Алексеевская организация · Добровольческая армия</text>
  </g>

  <g id="chip-right-center" transform="translate(1471 348)">
    <circle cx="0" cy="0" r="5" fill="#E3E1DA"/>
    <text x="14" y="5" fill="#f5f0e0" font-family="Source Serif Pro, serif" font-size="17">Правый центр</text>
  </g>

  <g id="chip-national-center" transform="translate(1471 395)">
    <circle cx="0" cy="0" r="5" fill="#E3E1DA"/>
    <text x="14" y="5" fill="#f5f0e0" font-family="Source Serif Pro, serif" font-size="17">Национальный центр</text>
  </g>

  <g id="chip-union-defence" transform="translate(1271 480)">
    <circle cx="0" cy="0" r="5" fill="#B36BA8"/>
    <text x="14" y="5" fill="#f5f0e0" font-family="Source Serif Pro, serif" font-size="17">Союз защиты Родины и свободы</text>
  </g>

  <g id="chip-union-renewal" transform="translate(1271 527)">
    <circle cx="0" cy="0" r="5" fill="#B36BA8"/>
    <text x="14" y="5" fill="#f5f0e0" font-family="Source Serif Pro, serif" font-size="17">Союз возрождения России</text>
  </g>

  <g id="chip-anarchists" transform="translate(301 828)">
    <circle cx="0" cy="0" r="5" fill="#5AA06A"/>
    <text x="14" y="5" fill="#f5f0e0" font-family="Source Serif Pro, serif" font-size="17">Анархисты</text>
  </g>

  <g id="chip-muslim-socialists" transform="translate(836 772)">
    <circle cx="0" cy="0" r="5" fill="#E3B650"/>
    <text x="14" y="5" fill="#f5f0e0" font-family="Source Serif Pro, serif" font-size="17">Мусульманские социалистические комитеты</text>
  </g>
  </g>

  <!-- Footer -->
  <g id="footer" transform="translate(0 911)">
    <text x="30" y="12" fill="rgba(245,240,224,0.55)" font-family="JetBrains Mono, monospace" font-size="13">
      <tspan fill="#f5f0e0" font-weight="700">Всего справок: 20</tspan>  ·  Максимум 3000 знаков текста, до 5 изображений
    </text>
    <g transform="translate(1522 0)">
      <rect x="-4" y="-6" width="148" height="28" rx="14" fill="none" stroke="#c49a2e"/>
      <text x="70" y="12" text-anchor="middle" fill="#c49a2e" font-family="JetBrains Mono, monospace" font-size="11" letter-spacing="2">ВСЕ СПРАВКИ →</text>
    </g>
  </g>
</svg>
