<svg xmlns="http://www.w3.org/2000/svg" viewBox="0 0 1920 1080" width="100%">
<rect width="1920" height="1080" fill="var(--page-bg-deep)"/>
<path d="M629.8,598.9 L631.2,608.4 L632.4,618.2 L633.1,628.0 L633.5,638.0 L633.5,648.1 L633.0,658.2 L631.9,668.2 L630.4,678.3 L628.3,688.1 L625.6,697.9 L622.4,707.3 L618.7,716.5 L614.4,725.4 L609.6,733.9 L604.3,742.0 L598.6,749.7 L592.4,756.8 L585.8,763.5 L578.9,769.7 L571.7,775.3 L564.3,780.4 L556.6,785.0 L548.8,789.1 L540.8,792.8 L532.8,795.9 L524.7,798.7 L516.6,801.0 L508.6,803.0 L500.6,804.7 L492.7,806.1 L484.9,807.3 L477.2,808.3 L469.6,809.1 L462.1,809.9 L454.8,810.6 L447.6,811.2 L440.5,811.9 L433.6,812.5 L426.7,813.2 L420.0,813.9 L413.3,814.7 L406.6,815.5 L400.0,816.4 L393.5,817.3 L386.9,818.3 L380.4,819.2 L373.9,820.2 L367.4,821.0 L360.8,821.8 L354.3,822.5 L347.7,823.1 L341.2,823.4 L334.6,823.6 L328.1,823.6 L321.5,823.3 L315.0,822.8 L308.6,821.9 L302.2,820.8 L295.9,819.4 L289.7,817.6 L283.5,815.5 L277.5,813.2 L271.6,810.5 L265.8,807.5 L260.1,804.3 L254.6,800.9 L249.2,797.2 L243.9,793.3 L238.7,789.3 L233.6,785.2 L228.5,780.9 L223.6,776.6 L218.7,772.2 L213.8,767.7 L209.0,763.2 L204.1,758.8 L199.2,754.3 L194.3,749.9 L189.3,745.4 L184.2,741.0 L179.0,736.6 L173.7,732.1 L168.4,727.7 L162.9,723.1 L157.3,718.5 L151.7,713.9 L145.9,709.0 L140.2,704.0 L134.4,698.9 L128.6,693.5 L122.8,687.8 L117.2,681.9 L111.7,675.8 L106.3,669.3 L101.2,662.4 L96.4,655.3 L91.9,647.8 L87.7,640.0 L84.0,631.9 L80.7,623.4 L78.0,614.7 L75.8,605.7 L74.1,596.5 L73.1,587.1 L72.7,577.5 L72.9,567.9 L73.7,558.2 L75.2,548.4 L77.3,538.7 L80.0,529.1 L83.3,519.6 L87.1,510.2 L91.5,501.1 L96.4,492.2 L101.6,483.5 L107.3,475.2 L113.2,467.2 L119.4,459.5 L125.9,452.1 L132.4,445.1 L139.1,438.4 L145.8,431.9 L152.4,425.8 L159.0,419.9 L165.5,414.3 L171.8,408.9 L178.0,403.6 L183.9,398.4 L189.6,393.3 L195.0,388.2 L200.2,383.1 L205.1,377.9 L209.8,372.7 L214.3,367.3 L218.5,361.7 L222.5,356.0 L226.4,350.1 L230.1,343.9 L233.7,337.5 L237.3,330.9 L240.8,324.1 L244.4,317.1 L247.9,309.9 L251.6,302.5 L255.4,295.0 L259.4,287.5 L263.5,279.9 L267.8,272.3 L272.4,264.7 L277.1,257.3 L282.2,250.0 L287.4,242.9 L293.0,236.0 L298.8,229.5 L304.8,223.2 L311.0,217.3 L317.5,211.9 L324.2,206.8 L331.0,202.2 L338.0,198.1 L345.1,194.4 L352.3,191.2 L359.7,188.5 L367.0,186.3 L374.5,184.5 L381.9,183.1 L389.3,182.2 L396.7,181.6 L404.1,181.4 L411.5,181.6 L418.8,182.0 L426.0,182.8 L433.2,183.7 L440.4,184.9 L447.5,186.3 L454.5,187.8 L461.5,189.5 L468.4,191.3 L475.3,193.2 L482.2,195.3 L489.0,197.5 L495.8,199.8 L502.5,202.2 L509.2,204.7 L515.9,207.4 L522.5,210.3 L529.1,213.4 L535.6,216.6 L541.9,220.1 L548.2,223.9 L554.4,227.9 L560.4,232.3 L566.2,236.9 L571.8,241.9 L577.2,247.2 L582.3,252.8 L587.1,258.9 L591.6,265.2 L595.8,271.9 L599.6,279.0 L603.0,286.4 L606.1,294.0 L608.7,301.9 L611.0,310.1 L612.8,318.5 L614.3,327.0 L615.3,335.7 L616.0,344.5 L616.3,353.4 L616.4,362.2 L616.1,371.1 L615.6,379.9 L614.9,388.6 L614.0,397.2 L613.0,405.7 L611.9,414.0 L610.8,422.1 L609.7,430.1 L608.6,437.9 L607.7,445.5 L606.9,453.0 L606.3,460.3 L605.9,467.4 L605.7,474.5 L605.8,481.5 L606.2,488.5 L606.8,495.5 L607.7,502.4 L608.8,509.5 L610.2,516.6 L611.8,523.9 L613.7,531.3 L615.6,538.9 L617.7,546.8 L619.8,554.8 L622.0,563.2 L624.1,571.7 L626.2,580.6 L628.1,589.6 Z" fill="var(--camp-red)" fill-opacity="0.42" stroke="var(--camp-red)" stroke-width="2"/>
<path d="M1649.5,293.8 L1644.3,301.7 L1637.8,309.6 L1630.3,317.4 L1621.7,325.1 L1612.1,332.7 L1601.6,340.2 L1590.4,347.5 L1578.6,354.6 L1566.3,361.4 L1553.6,368.1 L1540.7,374.5 L1527.7,380.8 L1514.7,386.8 L1501.8,392.6 L1489.2,398.2 L1477.0,403.6 L1465.1,408.9 L1453.8,414.1 L1443.0,419.3 L1432.8,424.3 L1423.2,429.4 L1414.3,434.4 L1406.0,439.6 L1398.4,444.8 L1391.2,450.1 L1384.6,455.5 L1378.5,461.2 L1372.7,466.9 L1367.3,472.9 L1362.0,479.1 L1356.9,485.5 L1351.7,492.0 L1346.5,498.8 L1341.1,505.7 L1335.4,512.8 L1329.3,520.0 L1322.8,527.3 L1315.7,534.7 L1308.0,542.1 L1299.6,549.4 L1290.6,556.7 L1280.8,563.9 L1270.2,571.0 L1258.9,577.9 L1246.8,584.5 L1234.0,590.9 L1220.5,597.0 L1206.3,602.7 L1191.5,608.1 L1176.1,613.0 L1160.2,617.6 L1143.9,621.7 L1127.1,625.4 L1110.1,628.7 L1092.9,631.5 L1075.4,633.9 L1057.9,635.9 L1040.3,637.5 L1022.7,638.7 L1005.2,639.6 L987.8,640.1 L970.5,640.4 L953.4,640.3 L936.5,640.1 L919.7,639.6 L903.2,638.9 L886.8,638.0 L870.7,637.1 L854.7,636.0 L838.9,634.8 L823.3,633.5 L807.9,632.1 L792.6,630.7 L777.4,629.2 L762.4,627.6 L747.4,626.0 L732.6,624.2 L718.0,622.4 L703.4,620.4 L689.1,618.4 L674.9,616.1 L660.9,613.8 L647.2,611.2 L633.8,608.4 L620.7,605.4 L607.9,602.2 L595.6,598.8 L583.8,595.0 L572.4,591.1 L561.7,586.8 L551.5,582.3 L541.9,577.6 L533.1,572.6 L524.9,567.4 L517.4,561.9 L510.7,556.3 L504.6,550.4 L499.2,544.5 L494.5,538.4 L490.5,532.2 L487.0,525.9 L484.0,519.6 L481.5,513.2 L479.4,506.9 L477.6,500.6 L476.1,494.4 L474.6,488.2 L473.2,482.2 L471.8,476.2 L470.3,470.3 L468.6,464.5 L466.5,458.9 L464.2,453.3 L461.4,447.8 L458.2,442.4 L454.4,437.1 L450.2,431.7 L445.5,426.4 L440.3,421.0 L434.6,415.7 L428.4,410.2 L421.9,404.6 L415.1,398.9 L408.1,393.1 L400.9,387.0 L393.7,380.8 L386.5,374.4 L379.6,367.8 L373.0,361.0 L366.9,353.9 L361.3,346.6 L356.5,339.1 L352.4,331.5 L349.3,323.7 L347.2,315.7 L346.3,307.6 L346.5,299.5 L348.1,291.3 L350.9,283.1 L355.1,275.0 L360.6,266.9 L367.6,259.0 L375.8,251.3 L385.4,243.7 L396.3,236.4 L408.3,229.4 L421.5,222.7 L435.7,216.4 L450.8,210.4 L466.8,204.8 L483.5,199.5 L500.8,194.7 L518.6,190.3 L536.8,186.2 L555.2,182.5 L573.8,179.2 L592.5,176.2 L611.1,173.5 L629.6,171.0 L647.9,168.8 L665.9,166.8 L683.6,165.0 L701.0,163.3 L718.0,161.7 L734.6,160.1 L750.9,158.6 L766.7,157.1 L782.2,155.5 L797.4,153.8 L812.2,152.1 L826.8,150.3 L841.2,148.4 L855.4,146.3 L869.5,144.2 L883.6,142.0 L897.6,139.6 L911.6,137.2 L925.7,134.8 L939.8,132.3 L954.1,129.8 L968.5,127.3 L983.0,124.9 L997.7,122.5 L1012.6,120.3 L1027.6,118.2 L1042.7,116.3 L1057.9,114.5 L1073.2,113.0 L1088.6,111.8 L1104.0,110.8 L1119.3,110.0 L1134.7,109.6 L1149.9,109.4 L1165.0,109.5 L1180.0,109.9 L1194.8,110.6 L1209.5,111.6 L1223.9,112.8 L1238.2,114.2 L1252.2,115.9 L1266.1,117.7 L1279.7,119.8 L1293.2,122.0 L1306.5,124.3 L1319.7,126.7 L1332.7,129.3 L1345.7,131.9 L1358.7,134.6 L1371.6,137.3 L1384.5,140.1 L1397.5,143.0 L1410.6,145.9 L1423.7,148.8 L1436.9,151.8 L1450.1,154.8 L1463.5,158.0 L1476.9,161.2 L1490.3,164.6 L1503.7,168.0 L1517.0,171.7 L1530.3,175.5 L1543.3,179.5 L1556.1,183.7 L1568.5,188.2 L1580.5,192.9 L1591.9,197.9 L1602.8,203.1 L1612.9,208.7 L1622.2,214.5 L1630.6,220.6 L1637.9,227.0 L1644.2,233.6 L1649.4,240.5 L1653.3,247.7 L1656.0,255.0 L1657.3,262.5 L1657.4,270.2 L1656.1,278.0 L1653.4,285.8 Z" fill="var(--camp-rev-dem)" fill-opacity="0.42" stroke="var(--camp-rev-dem)" stroke-width="2"/>
<path d="M1835.2,562.4 L1828.5,570.5 L1821.5,578.3 L1814.3,585.6 L1807.0,592.6 L1799.5,599.2 L1792.0,605.4 L1784.4,611.3 L1776.9,616.9 L1769.4,622.2 L1762.1,627.3 L1754.8,632.2 L1747.7,636.9 L1740.8,641.5 L1734.0,646.0 L1727.4,650.4 L1721.0,654.8 L1714.8,659.2 L1708.7,663.7 L1702.7,668.2 L1696.9,672.8 L1691.2,677.6 L1685.5,682.4 L1680.0,687.4 L1674.4,692.4 L1668.9,697.6 L1663.4,702.8 L1657.9,708.1 L1652.3,713.5 L1646.6,718.8 L1640.9,724.2 L1635.0,729.5 L1629.1,734.7 L1623.1,739.7 L1616.9,744.6 L1610.7,749.4 L1604.4,753.8 L1597.9,758.1 L1591.4,762.0 L1584.9,765.6 L1578.2,768.9 L1571.5,771.9 L1564.8,774.5 L1558.1,776.7 L1551.3,778.6 L1544.6,780.2 L1537.9,781.4 L1531.2,782.3 L1524.6,782.9 L1517.9,783.2 L1511.4,783.3 L1504.8,783.2 L1498.3,782.8 L1491.9,782.3 L1485.4,781.6 L1479.0,780.9 L1472.6,780.0 L1466.2,779.0 L1459.8,778.0 L1453.4,776.9 L1446.9,775.8 L1440.4,774.6 L1433.8,773.4 L1427.2,772.0 L1420.6,770.7 L1413.9,769.2 L1407.2,767.6 L1400.5,765.8 L1393.7,763.8 L1387.0,761.7 L1380.3,759.3 L1373.6,756.6 L1367.1,753.5 L1360.6,750.2 L1354.4,746.4 L1348.3,742.3 L1342.5,737.7 L1336.9,732.6 L1331.7,727.1 L1326.8,721.1 L1322.4,714.6 L1318.3,707.7 L1314.8,700.3 L1311.7,692.4 L1309.2,684.1 L1307.2,675.5 L1305.7,666.4 L1304.8,657.1 L1304.5,647.5 L1304.7,637.6 L1305.5,627.6 L1306.7,617.4 L1308.5,607.2 L1310.7,596.9 L1313.4,586.7 L1316.4,576.5 L1319.7,566.5 L1323.3,556.6 L1327.1,546.9 L1331.1,537.3 L1335.2,528.1 L1339.3,519.0 L1343.5,510.2 L1347.5,501.7 L1351.5,493.4 L1355.3,485.3 L1359.0,477.5 L1362.4,469.8 L1365.6,462.3 L1368.4,454.9 L1371.1,447.6 L1373.4,440.4 L1375.4,433.2 L1377.1,425.9 L1378.6,418.6 L1379.9,411.2 L1380.9,403.6 L1381.7,395.9 L1382.4,387.9 L1383.0,379.8 L1383.5,371.5 L1384.1,362.9 L1384.6,354.1 L1385.3,345.0 L1386.0,335.8 L1387.0,326.3 L1388.2,316.7 L1389.6,306.9 L1391.3,297.1 L1393.4,287.2 L1395.8,277.2 L1398.6,267.3 L1401.8,257.5 L1405.3,247.8 L1409.3,238.3 L1413.7,229.0 L1418.4,220.0 L1423.5,211.3 L1429.0,203.0 L1434.9,195.0 L1441.0,187.5 L1447.4,180.4 L1454.1,173.7 L1461.0,167.5 L1468.1,161.8 L1475.3,156.5 L1482.7,151.7 L1490.1,147.3 L1497.6,143.3 L1505.2,139.8 L1512.8,136.6 L1520.4,133.8 L1527.9,131.3 L1535.5,129.1 L1543.0,127.1 L1550.4,125.4 L1557.8,123.8 L1565.1,122.5 L1572.3,121.3 L1579.5,120.2 L1586.7,119.2 L1593.8,118.3 L1600.8,117.6 L1607.8,116.9 L1614.8,116.3 L1621.7,115.8 L1628.6,115.5 L1635.5,115.3 L1642.3,115.3 L1649.1,115.4 L1655.8,115.7 L1662.5,116.3 L1669.1,117.1 L1675.6,118.3 L1682.0,119.7 L1688.3,121.5 L1694.5,123.6 L1700.5,126.1 L1706.4,128.9 L1712.0,132.2 L1717.5,135.8 L1722.7,139.9 L1727.7,144.3 L1732.4,149.0 L1736.9,154.2 L1741.1,159.6 L1745.1,165.4 L1748.8,171.3 L1752.3,177.6 L1755.5,184.0 L1758.5,190.5 L1761.3,197.2 L1764.0,203.9 L1766.5,210.7 L1768.8,217.4 L1771.1,224.1 L1773.4,230.7 L1775.6,237.2 L1777.8,243.6 L1780.1,249.8 L1782.5,255.9 L1785.0,261.8 L1787.7,267.6 L1790.5,273.2 L1793.6,278.7 L1796.8,284.0 L1800.2,289.3 L1803.9,294.5 L1807.8,299.7 L1811.9,304.9 L1816.2,310.1 L1820.6,315.4 L1825.2,320.9 L1829.9,326.5 L1834.7,332.4 L1839.4,338.5 L1844.1,344.8 L1848.8,351.5 L1853.3,358.5 L1857.6,365.8 L1861.6,373.5 L1865.4,381.5 L1868.8,389.9 L1871.7,398.6 L1874.2,407.6 L1876.2,416.9 L1877.6,426.4 L1878.5,436.2 L1878.7,446.2 L1878.4,456.3 L1877.4,466.5 L1875.7,476.7 L1873.5,486.9 L1870.6,497.1 L1867.1,507.1 L1863.0,517.0 L1858.4,526.6 L1853.2,536.0 L1847.6,545.2 L1841.6,554.0 Z" fill="var(--camp-white)" fill-opacity="0.42" stroke="var(--camp-white)" stroke-width="2"/>
<path d="M845.2,842.8 L845.2,845.2 L845.7,847.6 L846.7,849.9 L848.0,852.1 L849.8,854.3 L851.9,856.5 L854.4,858.7 L857.1,860.9 L860.1,863.1 L863.2,865.4 L866.5,867.7 L869.7,870.1 L872.8,872.7 L875.9,875.3 L878.6,878.0 L881.1,880.9 L883.2,883.9 L884.8,887.1 L885.9,890.4 L886.4,893.8 L886.3,897.3 L885.4,900.9 L883.9,904.7 L881.5,908.5 L878.5,912.4 L874.6,916.4 L870.0,920.4 L864.6,924.4 L858.5,928.4 L851.6,932.4 L844.1,936.4 L836.0,940.3 L827.3,944.1 L818.1,947.9 L808.4,951.6 L798.4,955.2 L787.9,958.7 L777.2,962.0 L766.3,965.3 L755.2,968.4 L744.0,971.4 L732.7,974.3 L721.4,977.0 L710.1,979.7 L698.9,982.3 L687.8,984.7 L676.7,987.1 L665.7,989.4 L654.9,991.7 L644.2,993.9 L633.6,996.0 L623.1,998.1 L612.8,1000.2 L602.5,1002.3 L592.4,1004.3 L582.2,1006.3 L572.2,1008.3 L562.2,1010.2 L552.2,1012.2 L542.3,1014.1 L532.4,1016.0 L522.5,1017.8 L512.6,1019.5 L502.7,1021.2 L492.8,1022.9 L483.0,1024.4 L473.2,1025.9 L463.4,1027.2 L453.7,1028.5 L444.1,1029.6 L434.6,1030.6 L425.3,1031.4 L416.0,1032.1 L407.0,1032.7 L398.1,1033.1 L389.4,1033.4 L381.0,1033.6 L372.7,1033.6 L364.7,1033.5 L356.8,1033.3 L349.2,1033.0 L341.8,1032.6 L334.6,1032.1 L327.5,1031.6 L320.6,1031.0 L313.7,1030.4 L307.0,1029.8 L300.3,1029.2 L293.5,1028.6 L286.8,1028.0 L280.0,1027.5 L273.1,1027.0 L266.0,1026.6 L258.8,1026.3 L251.4,1025.9 L243.7,1025.7 L235.8,1025.5 L227.7,1025.3 L219.4,1025.2 L210.8,1025.1 L202.0,1025.0 L193.1,1024.9 L184.0,1024.8 L174.7,1024.6 L165.5,1024.3 L156.2,1024.0 L147.0,1023.5 L137.9,1023.0 L129.0,1022.2 L120.4,1021.3 L112.2,1020.2 L104.5,1018.9 L97.2,1017.4 L90.5,1015.7 L84.6,1013.8 L79.3,1011.6 L74.9,1009.2 L71.3,1006.5 L68.6,1003.6 L66.8,1000.5 L66.0,997.3 L66.1,993.8 L67.2,990.1 L69.3,986.3 L72.3,982.4 L76.2,978.4 L81.0,974.2 L86.6,970.0 L93.0,965.8 L100.0,961.5 L107.6,957.3 L115.8,953.1 L124.4,948.9 L133.4,944.8 L142.7,940.7 L152.1,936.7 L161.7,932.9 L171.3,929.1 L180.8,925.4 L190.3,921.8 L199.6,918.4 L208.6,915.0 L217.5,911.7 L226.0,908.5 L234.1,905.4 L242.0,902.3 L249.5,899.3 L256.7,896.3 L263.6,893.3 L270.1,890.4 L276.4,887.4 L282.5,884.5 L288.3,881.5 L294.1,878.4 L299.7,875.3 L305.2,872.2 L310.8,869.0 L316.4,865.8 L322.1,862.5 L327.9,859.2 L333.9,855.8 L340.1,852.4 L346.6,848.9 L353.3,845.5 L360.4,842.0 L367.7,838.5 L375.4,835.1 L383.3,831.6 L391.6,828.3 L400.2,824.9 L409.1,821.7 L418.3,818.5 L427.7,815.4 L437.3,812.4 L447.1,809.6 L457.1,806.8 L467.2,804.1 L477.5,801.6 L487.9,799.2 L498.3,796.9 L508.7,794.7 L519.2,792.6 L529.7,790.6 L540.3,788.8 L550.8,787.0 L561.2,785.2 L571.7,783.6 L582.2,782.0 L592.6,780.5 L603.0,779.0 L613.5,777.5 L623.9,776.1 L634.4,774.7 L644.8,773.4 L655.3,772.1 L665.8,770.8 L676.3,769.6 L686.8,768.4 L697.4,767.3 L707.9,766.3 L718.4,765.3 L728.8,764.5 L739.2,763.7 L749.4,763.1 L759.5,762.6 L769.4,762.3 L779.0,762.2 L788.4,762.2 L797.4,762.4 L806.1,762.9 L814.3,763.6 L822.1,764.5 L829.3,765.6 L836.0,767.0 L842.1,768.6 L847.6,770.4 L852.4,772.4 L856.6,774.7 L860.1,777.2 L862.9,779.9 L865.1,782.7 L866.6,785.7 L867.6,788.9 L867.9,792.1 L867.7,795.5 L867.1,798.9 L866.0,802.3 L864.6,805.8 L862.8,809.3 L860.9,812.7 L858.8,816.1 L856.7,819.5 L854.5,822.7 L852.4,825.9 L850.5,829.0 L848.8,832.0 L847.4,834.8 L846.3,837.6 L845.5,840.2 Z" fill="var(--camp-green)" fill-opacity="0.42" stroke="var(--camp-green)" stroke-width="2"/>
<path d="M1724.3,694.6 L1732.7,701.2 L1740.9,708.0 L1748.7,714.9 L1756.1,722.0 L1762.7,729.1 L1768.6,736.5 L1773.6,743.9 L1777.6,751.4 L1780.5,759.0 L1782.0,766.6 L1782.2,774.2 L1781.0,781.8 L1778.2,789.3 L1773.8,796.7 L1767.8,804.0 L1760.2,811.1 L1750.9,817.9 L1739.9,824.5 L1727.4,830.8 L1713.3,836.8 L1697.8,842.5 L1680.9,847.7 L1662.7,852.6 L1643.4,857.1 L1623.0,861.1 L1601.8,864.8 L1579.9,868.0 L1557.4,870.8 L1534.5,873.3 L1511.4,875.4 L1488.1,877.1 L1464.8,878.6 L1441.7,879.8 L1418.8,880.7 L1396.3,881.5 L1374.2,882.1 L1352.6,882.6 L1331.7,883.1 L1311.3,883.6 L1291.6,884.1 L1272.5,884.7 L1254.0,885.4 L1236.1,886.2 L1218.8,887.2 L1201.9,888.4 L1185.5,889.8 L1169.4,891.5 L1153.5,893.3 L1137.9,895.4 L1122.3,897.7 L1106.7,900.2 L1091.0,902.9 L1075.2,905.7 L1059.1,908.7 L1042.7,911.8 L1026.0,914.9 L1008.8,918.0 L991.3,921.1 L973.2,924.2 L954.7,927.1 L935.7,929.9 L916.3,932.5 L896.5,934.8 L876.3,936.9 L855.7,938.7 L834.9,940.1 L813.9,941.2 L792.8,942.0 L771.6,942.3 L750.4,942.3 L729.2,941.8 L708.2,941.0 L687.4,939.8 L666.8,938.2 L646.5,936.2 L626.6,933.9 L607.1,931.3 L588.0,928.3 L569.3,925.1 L551.1,921.6 L533.3,917.9 L515.9,914.0 L498.9,910.0 L482.3,905.7 L466.1,901.4 L450.3,896.9 L434.7,892.3 L419.5,887.6 L404.4,882.9 L389.7,878.1 L375.1,873.2 L360.7,868.3 L346.6,863.3 L332.6,858.2 L318.9,853.0 L305.4,847.8 L292.1,842.5 L279.2,837.1 L266.6,831.5 L254.5,825.9 L242.8,820.1 L231.7,814.2 L221.2,808.2 L211.5,802.1 L202.5,795.8 L194.5,789.4 L187.4,782.8 L181.3,776.2 L176.3,769.5 L172.5,762.7 L169.9,755.8 L168.5,748.9 L168.4,741.9 L169.6,735.0 L172.1,728.1 L175.7,721.2 L180.6,714.4 L186.7,707.7 L193.8,701.1 L201.9,694.6 L210.8,688.3 L220.6,682.1 L231.0,676.1 L242.0,670.3 L253.4,664.6 L265.0,659.1 L276.7,653.8 L288.5,648.6 L300.1,643.6 L311.5,638.6 L322.5,633.8 L333.1,629.0 L343.1,624.3 L352.5,619.5 L361.3,614.8 L369.4,610.0 L376.8,605.1 L383.5,600.1 L389.5,594.9 L394.9,589.6 L399.7,584.2 L404.1,578.5 L408.0,572.6 L411.7,566.5 L415.2,560.2 L418.7,553.6 L422.3,546.9 L426.1,540.0 L430.2,533.0 L434.9,525.8 L440.1,518.5 L446.1,511.2 L452.9,503.8 L460.7,496.5 L469.5,489.2 L479.4,482.1 L490.3,475.2 L502.5,468.5 L515.9,462.0 L530.4,455.9 L546.1,450.2 L562.8,444.8 L580.7,440.0 L599.5,435.6 L619.3,431.6 L639.9,428.3 L661.2,425.4 L683.1,423.1 L705.5,421.4 L728.3,420.2 L751.3,419.5 L774.5,419.3 L797.8,419.6 L821.0,420.4 L844.0,421.6 L866.9,423.2 L889.4,425.2 L911.6,427.4 L933.4,430.0 L954.7,432.7 L975.6,435.7 L996.0,438.8 L1015.9,442.0 L1035.4,445.2 L1054.5,448.5 L1073.1,451.8 L1091.4,455.1 L1109.3,458.4 L1127.0,461.6 L1144.4,464.7 L1161.6,467.8 L1178.6,470.8 L1195.6,473.7 L1212.4,476.6 L1229.1,479.4 L1245.9,482.2 L1262.5,485.0 L1279.2,487.8 L1295.8,490.6 L1312.3,493.5 L1328.7,496.4 L1345.0,499.4 L1361.2,502.5 L1377.2,505.8 L1392.9,509.1 L1408.4,512.7 L1423.4,516.4 L1438.1,520.2 L1452.4,524.3 L1466.2,528.5 L1479.4,532.9 L1492.1,537.5 L1504.2,542.2 L1515.8,547.1 L1526.7,552.1 L1537.0,557.2 L1546.8,562.5 L1556.0,567.8 L1564.7,573.2 L1572.9,578.7 L1580.7,584.2 L1588.2,589.8 L1595.3,595.4 L1602.3,601.0 L1609.0,606.6 L1615.7,612.2 L1622.4,617.8 L1629.2,623.4 L1636.0,629.1 L1643.0,634.7 L1650.2,640.4 L1657.7,646.1 L1665.3,651.8 L1673.3,657.6 L1681.4,663.5 L1689.8,669.5 L1698.3,675.6 L1707.0,681.8 L1715.6,688.1 Z" fill="var(--camp-national)" fill-opacity="0.42" stroke="var(--camp-national)" stroke-width="2"/>
<circle cx="785" cy="498" r="32.0" fill="none" stroke="var(--brass)" stroke-opacity="0.30" stroke-width="1"/>
<circle cx="785" cy="498" r="7" fill="var(--camp-national)" stroke="var(--paper-white)" stroke-width="1.5"/>
<circle cx="785" cy="578" r="32.0" fill="none" stroke="var(--brass)" stroke-opacity="0.30" stroke-width="1"/>
<circle cx="785" cy="578" r="7" fill="var(--camp-national)" stroke="var(--paper-white)" stroke-width="1.5"/>
<circle cx="906" cy="498" r="32.0" fill="none" stroke="var(--brass)" stroke-opacity="0.30" stroke-width="1"/>
<circle cx="906" cy="498" r="7" fill="var(--camp-national)" stroke="var(--paper-white)" stroke-width="1.5"/>
<circle cx="906" cy="578" r="32.0" fill="none" stroke="var(--brass)" stroke-opacity="0.30" stroke-width="1"/>
<circle cx="906" cy="578" r="7" fill="var(--camp-national)" stroke="var(--paper-white)" stroke-width="1.5"/>
<circle cx="380" cy="724" r="32.0" fill="none" stroke="var(--brass)" stroke-opacity="0.30" stroke-width="1"/>
<circle cx="380" cy="724" r="7" fill="var(--camp-national)" stroke="var(--paper-white)" stroke-width="1.5"/>
<circle cx="258" cy="724" r="32.0" fill="none" stroke="var(--brass)" stroke-opacity="0.30" stroke-width="1"/>
<circle cx="258" cy="724" r="7" fill="var(--camp-national)" stroke="var(--paper-white)" stroke-width="1.5"/>
<circle cx="380" cy="644" r="32.0" fill="none" stroke="var(--brass)" stroke-opacity="0.30" stroke-width="1"/>
<circle cx="380" cy="644" r="7" fill="var(--camp-national)" stroke="var(--paper-white)" stroke-width="1.5"/>
<circle cx="1430" cy="392" r="32.0" fill="none" stroke="var(--brass)" stroke-opacity="0.30" stroke-width="1"/>
<circle cx="1430" cy="392" r="7" fill="var(--camp-rev-dem)" stroke="var(--paper-white)" stroke-width="1.5"/>
<circle cx="1430" cy="311" r="32.0" fill="none" stroke="var(--brass)" stroke-opacity="0.30" stroke-width="1"/>
<circle cx="1430" cy="311" r="7" fill="var(--camp-rev-dem)" stroke="var(--paper-white)" stroke-width="1.5"/>
<circle cx="470" cy="343" r="32.0" fill="none" stroke="var(--brass)" stroke-opacity="0.30" stroke-width="1"/>
<circle cx="470" cy="343" r="7" fill="var(--camp-red)" stroke="var(--paper-white)" stroke-width="1.5"/>
<circle cx="1346" cy="587" r="32.0" fill="none" stroke="var(--brass)" stroke-opacity="0.30" stroke-width="1"/>
<circle cx="1346" cy="587" r="7" fill="var(--camp-national)" stroke="var(--paper-white)" stroke-width="1.5"/>
<circle cx="506" cy="856" r="32.0" fill="none" stroke="var(--brass)" stroke-opacity="0.30" stroke-width="1"/>
<circle cx="506" cy="856" r="7" fill="var(--camp-green)" stroke="var(--paper-white)" stroke-width="1.5"/>
<circle cx="163" cy="507" r="32.0" fill="none" stroke="var(--brass)" stroke-opacity="0.30" stroke-width="1"/>
<circle cx="163" cy="507" r="7" fill="var(--camp-red)" stroke="var(--paper-white)" stroke-width="1.5"/>
<circle cx="163" cy="588" r="32.0" fill="none" stroke="var(--brass)" stroke-opacity="0.30" stroke-width="1"/>
<circle cx="163" cy="588" r="7" fill="var(--camp-red)" stroke="var(--paper-white)" stroke-width="1.5"/>
<circle cx="280" cy="914" r="32.0" fill="none" stroke="var(--brass)" stroke-opacity="0.30" stroke-width="1"/>
<circle cx="280" cy="914" r="7" fill="var(--camp-green)" stroke="var(--paper-white)" stroke-width="1.5"/>
<circle cx="280" cy="994" r="32.0" fill="none" stroke="var(--brass)" stroke-opacity="0.30" stroke-width="1"/>
<circle cx="280" cy="994" r="7" fill="var(--camp-green)" stroke="var(--paper-white)" stroke-width="1.5"/>
<circle cx="1707" cy="286" r="32.0" fill="none" stroke="var(--brass)" stroke-opacity="0.30" stroke-width="1"/>
<circle cx="1707" cy="286" r="7" fill="var(--camp-white)" stroke="var(--paper-white)" stroke-width="1.5"/>
<circle cx="1707" cy="366" r="32.0" fill="none" stroke="var(--brass)" stroke-opacity="0.30" stroke-width="1"/>
<circle cx="1707" cy="366" r="7" fill="var(--camp-white)" stroke="var(--paper-white)" stroke-width="1.5"/>
<circle cx="1707" cy="446" r="32.0" fill="none" stroke="var(--brass)" stroke-opacity="0.30" stroke-width="1"/>
<circle cx="1707" cy="446" r="7" fill="var(--camp-white)" stroke="var(--paper-white)" stroke-width="1.5"/>
<circle cx="1707" cy="526" r="32.0" fill="none" stroke="var(--brass)" stroke-opacity="0.30" stroke-width="1"/>
<circle cx="1707" cy="526" r="7" fill="var(--camp-white)" stroke="var(--paper-white)" stroke-width="1.5"/>
<circle cx="1707" cy="206" r="32.0" fill="none" stroke="var(--brass)" stroke-opacity="0.30" stroke-width="1"/>
<circle cx="1707" cy="206" r="7" fill="var(--camp-white)" stroke="var(--paper-white)" stroke-width="1.5"/>
<circle cx="968" cy="700" r="32.0" fill="none" stroke="var(--brass)" stroke-opacity="0.30" stroke-width="1"/>
<circle cx="968" cy="700" r="7" fill="var(--camp-national)" stroke="var(--paper-white)" stroke-width="1.5"/>
<circle cx="968" cy="780" r="32.0" fill="none" stroke="var(--brass)" stroke-opacity="0.30" stroke-width="1"/>
<circle cx="968" cy="780" r="7" fill="var(--camp-national)" stroke="var(--paper-white)" stroke-width="1.5"/>
<circle cx="968" cy="860" r="32.0" fill="none" stroke="var(--brass)" stroke-opacity="0.30" stroke-width="1"/>
<circle cx="968" cy="860" r="7" fill="var(--camp-national)" stroke="var(--paper-white)" stroke-width="1.5"/>
<circle cx="1089" cy="700" r="32.0" fill="none" stroke="var(--brass)" stroke-opacity="0.30" stroke-width="1"/>
<circle cx="1089" cy="700" r="7" fill="var(--camp-national)" stroke="var(--paper-white)" stroke-width="1.5"/>
<circle cx="1089" cy="780" r="32.0" fill="none" stroke="var(--brass)" stroke-opacity="0.30" stroke-width="1"/>
<circle cx="1089" cy="780" r="7" fill="var(--camp-national)" stroke="var(--paper-white)" stroke-width="1.5"/>
<circle cx="694" cy="418" r="32.0" fill="none" stroke="var(--brass)" stroke-opacity="0.30" stroke-width="1"/>
<circle cx="694" cy="418" r="7" fill="var(--camp-rev-dem)" stroke="var(--paper-white)" stroke-width="1.5"/>
<circle cx="694" cy="338" r="32.0" fill="none" stroke="var(--brass)" stroke-opacity="0.30" stroke-width="1"/>
<circle cx="694" cy="338" r="7" fill="var(--camp-rev-dem)" stroke="var(--paper-white)" stroke-width="1.5"/>
<circle cx="816" cy="338" r="32.0" fill="none" stroke="var(--brass)" stroke-opacity="0.30" stroke-width="1"/>
<circle cx="816" cy="338" r="7" fill="var(--camp-rev-dem)" stroke="var(--paper-white)" stroke-width="1.5"/>
<circle cx="816" cy="257" r="32.0" fill="none" stroke="var(--brass)" stroke-opacity="0.30" stroke-width="1"/>
<circle cx="816" cy="257" r="7" fill="var(--camp-rev-dem)" stroke="var(--paper-white)" stroke-width="1.5"/>
<circle cx="694" cy="257" r="32.0" fill="none" stroke="var(--brass)" stroke-opacity="0.30" stroke-width="1"/>
<circle cx="694" cy="257" r="7" fill="var(--camp-rev-dem)" stroke="var(--paper-white)" stroke-width="1.5"/>
<circle cx="694" cy="178" r="32.0" fill="none" stroke="var(--brass)" stroke-opacity="0.30" stroke-width="1"/>
<circle cx="694" cy="178" r="7" fill="var(--camp-rev-dem)" stroke="var(--paper-white)" stroke-width="1.5"/>
<circle cx="816" cy="178" r="32.0" fill="none" stroke="var(--brass)" stroke-opacity="0.30" stroke-width="1"/>
<circle cx="816" cy="178" r="7" fill="var(--camp-rev-dem)" stroke="var(--paper-white)" stroke-width="1.5"/>
</svg>