<?xml version="1.0" standalone="no"?>
<!DOCTYPE svg PUBLIC "-//W3C//DTD SVG 20010904//EN"
 "http://www.w3.org/TR/2001/REC-SVG-20010904/DTD/svg10.dtd">
<svg version="1.0" xmlns="http://www.w3.org/2000/svg"
 width="1500.000000pt" height="1000.000000pt" viewBox="0 0 1500.000000 1000.000000"
 preserveAspectRatio="xMidYMid meet">
<metadata>
Created by potrace 1.16, written by Peter Selinger 2001-2019
</metadata>
<g transform="translate(0.000000,1000.000000) scale(0.100000,-0.100000)"
fill="#000000" stroke="none">
<path d="M4504 9321 c-39 -27 -74 -88 -74 -127 0 -42 36 -118 74 -157 63 -64
77 -92 92 -188 19 -115 25 -130 77 -187 24 -26 47 -55 50 -66 4 -10 0 -55 -8
-100 -18 -96 -12 -125 40 -197 54 -72 68 -126 60 -230 -7 -85 -7 -86 20 -108
16 -12 42 -21 61 -21 55 0 74 -35 74 -137 0 -49 6 -97 14 -117 15 -36 70 -81
86 -71 16 10 12 20 -20 53 -28 30 -30 37 -30 110 0 136 -31 192 -117 210 l-38
8 3 74 c4 99 -12 161 -64 236 -48 70 -51 84 -39 215 8 96 0 122 -55 174 -41
39 -56 77 -69 170 -13 91 -29 124 -92 191 -51 55 -75 115 -64 163 7 32 51 77
80 83 27 5 27 42 0 46 -12 2 -39 -10 -61 -27z"/>
<path d="M3915 8936 c-22 -7 -68 -27 -102 -44 -74 -38 -109 -40 -180 -10 -64
26 -115 18 -146 -24 -27 -36 -24 -71 8 -114 26 -34 26 -36 10 -54 -10 -11 -40
-27 -67 -36 -63 -21 -114 -71 -128 -126 -6 -24 -22 -83 -35 -131 -14 -48 -25
-94 -25 -102 0 -18 39 -20 44 -2 2 6 10 35 19 62 9 28 21 74 27 104 16 80 41
113 107 145 71 35 113 72 113 102 0 13 -11 40 -25 60 -22 33 -24 40 -12 58 18
27 75 33 115 12 17 -9 48 -18 71 -22 36 -6 52 -1 123 36 78 41 89 43 183 48
92 4 103 2 135 -20 40 -27 78 -94 62 -110 -6 -6 -2 -25 13 -56 38 -80 39 -90
11 -126 -14 -19 -22 -36 -19 -40 3 -3 -2 -8 -11 -12 -9 -3 -16 -10 -16 -15 0
-4 6 -6 14 -3 18 7 30 -13 32 -51 1 -16 3 -32 4 -35 1 -3 2 -9 1 -13 -1 -5 9
-17 21 -27 21 -17 24 -17 29 -2 4 9 -2 34 -13 55 -14 29 -18 49 -13 78 4 21
10 41 15 44 20 12 21 79 2 143 -11 37 -25 87 -32 112 -15 55 -63 104 -115 119
-53 14 -170 13 -220 -3z"/>
<path d="M1189 8586 c-58 -15 -121 -61 -182 -133 -64 -74 -76 -100 -87 -185
-5 -40 -13 -83 -16 -95 -5 -20 -2 -23 19 -23 27 0 30 8 46 120 11 78 22 99 88
170 86 93 192 133 308 116 41 -7 50 -13 82 -58 21 -29 51 -57 70 -64 50 -21
120 -17 188 12 83 35 91 35 87 -2 -5 -56 61 -88 147 -71 88 17 122 -17 92 -95
-13 -34 -78 -110 -109 -129 -31 -18 -36 -52 -8 -57 12 -3 38 16 76 56 69 70
89 106 97 172 5 43 3 51 -21 73 -32 30 -75 40 -115 26 -16 -6 -46 -9 -68 -7
-38 3 -38 4 -39 46 0 23 -5 47 -11 53 -18 18 -67 13 -120 -14 -110 -56 -186
-46 -234 33 -19 32 -40 52 -61 59 -41 14 -171 13 -229 -3z"/>
<path d="M2963 8408 c1 -13 8 -30 17 -39 8 -10 23 -29 33 -43 10 -14 36 -35
57 -46 l40 -20 -2 25 c-1 14 -6 25 -10 25 -3 0 -28 27 -54 60 -49 62 -84 79
-81 38z"/>
<path d="M2798 8396 c-41 -18 -87 -65 -113 -117 -28 -53 -69 -92 -185 -174
l-85 -60 38 -3 c66 -6 217 117 291 237 40 65 61 79 131 90 27 4 41 12 43 24 3
14 -4 17 -45 16 -26 0 -60 -6 -75 -13z"/>
<path d="M9177 8372 c-25 -27 -21 -34 16 -27 21 4 47 1 69 -8 56 -23 174 -126
213 -184 19 -29 47 -59 62 -66 16 -8 71 -17 123 -20 123 -6 248 -45 283 -87
14 -16 37 -61 53 -101 34 -86 59 -107 109 -92 37 12 45 9 45 -17 0 -36 27 -54
86 -60 53 -5 60 -8 73 -35 24 -52 51 -74 108 -85 38 -8 58 -9 65 -2 20 20 0
39 -50 46 -54 7 -67 17 -77 58 -13 50 -41 70 -98 66 -52 -3 -52 -3 -55 28 -2
18 -11 39 -22 49 -16 14 -24 15 -59 4 -25 -7 -45 -9 -50 -3 -4 5 -23 45 -42
88 -22 50 -45 88 -65 104 -62 49 -216 92 -332 92 -75 0 -92 11 -126 77 -9 18
-33 44 -53 60 -21 15 -59 47 -85 70 -26 24 -59 48 -73 53 -43 16 -100 12 -118
-8z"/>
<path d="M4241 8273 c-29 -107 -38 -113 -76 -53 -32 50 -55 53 -55 7 0 -34 22
-63 67 -86 40 -20 61 -13 82 27 15 29 41 124 41 147 0 3 -10 5 -23 5 -19 0
-25 -8 -36 -47z"/>
<path d="M886 8078 c-18 -69 2 -104 56 -95 18 3 52 8 75 12 37 7 44 5 67 -20
28 -30 42 -81 31 -116 -7 -22 -83 -99 -98 -99 -5 0 -27 -13 -50 -28 -23 -16
-72 -42 -109 -57 -72 -31 -73 -32 -59 -54 18 -28 230 78 320 160 29 27 34 38
38 93 6 72 -9 112 -56 145 -52 38 -75 42 -117 21 -45 -23 -54 -19 -54 26 0 27
-4 34 -19 34 -11 0 -21 -9 -25 -22z"/>
<path d="M2346 7965 c-25 -38 -21 -98 10 -134 14 -17 34 -31 43 -31 9 0 25 -6
35 -13 17 -12 17 -15 -8 -51 -38 -56 -34 -98 13 -178 22 -36 43 -77 47 -92 9
-37 39 -54 115 -67 77 -14 93 -27 114 -89 24 -71 75 -110 146 -110 23 0 34 -7
47 -32 34 -64 66 -88 117 -88 57 0 89 -28 105 -91 16 -66 30 -88 83 -132 52
-45 115 -137 140 -207 8 -25 18 -77 21 -117 7 -108 24 -125 121 -127 l50 -1 6
-58 c6 -57 13 -70 91 -174 17 -23 36 -63 43 -90 10 -38 17 -49 35 -51 21 -4
22 -1 16 35 -9 50 -39 111 -80 165 -48 63 -58 86 -63 142 -5 62 -21 76 -83 76
-74 0 -87 15 -92 110 -7 112 -64 227 -160 320 -58 57 -70 74 -88 133 -17 55
-27 71 -58 92 -21 14 -51 25 -70 25 -47 0 -70 15 -88 59 -17 43 -47 61 -102
61 -53 0 -78 21 -92 79 -18 78 -48 101 -145 116 -68 10 -81 19 -96 62 -6 21
-25 55 -40 77 -38 51 -38 92 0 139 47 60 32 85 -71 126 -23 9 -28 17 -28 46 0
20 7 49 15 65 15 29 15 30 -9 30 -14 0 -30 -10 -40 -25z"/>
<path d="M7963 7029 c-7 -7 -4 -17 12 -33 13 -13 33 -43 45 -67 22 -42 36 -59
53 -59 12 0 8 19 -18 73 -24 52 -59 97 -73 97 -5 0 -13 -5 -19 -11z"/>
<path d="M5716 6962 c-24 -6 -31 -15 -43 -56 -8 -26 -12 -51 -9 -53 9 -10 36
19 36 38 0 29 32 39 125 39 77 0 86 2 83 18 -3 14 -16 17 -83 19 -44 0 -93 -2
-109 -5z"/>
<path d="M8338 6855 c-3 -3 -35 -6 -72 -6 -79 -1 -88 -24 -10 -25 65 -1 197
19 188 29 -8 8 -98 10 -106 2z"/>
<path d="M8394 6785 c-15 -10 -51 -15 -115 -16 -110 -2 -130 -5 -123 -23 11
-29 98 -48 120 -26 5 5 25 11 43 12 36 3 35 4 75 -77 46 -95 45 -90 30 -147
-16 -60 -17 -78 -6 -78 4 0 17 27 30 59 13 33 30 65 38 71 22 19 17 49 -10 60
-27 10 -90 129 -76 144 5 4 29 11 55 14 31 3 42 8 33 13 -21 14 -72 10 -94 -6z"/>
<path d="M710 6745 c0 -19 31 -35 69 -35 21 0 45 -14 83 -46 29 -25 65 -52 80
-60 31 -16 46 -41 83 -140 19 -50 39 -81 71 -112 41 -40 45 -47 42 -85 -3 -42
-3 -42 -40 -39 -24 2 -52 -5 -80 -20 -34 -18 -59 -23 -123 -23 -86 0 -157 -25
-163 -58 -4 -21 13 -21 68 -2 46 16 89 19 139 9 24 -5 35 -15 47 -42 8 -20 25
-50 38 -66 13 -17 33 -61 46 -99 22 -66 22 -68 4 -88 -10 -12 -35 -29 -54 -39
-62 -32 -85 -65 -83 -119 3 -66 18 -101 44 -101 20 0 21 3 14 59 -9 80 -2 98
51 123 68 32 87 62 81 127 -6 51 -17 78 -83 199 l-29 53 24 20 c17 14 36 19
75 17 28 -1 77 5 109 15 80 22 120 9 154 -53 58 -104 118 -135 292 -150 183
-16 235 -39 277 -123 40 -78 73 -116 128 -148 28 -17 63 -39 77 -50 22 -17 29
-19 52 -8 33 15 34 25 3 33 -27 7 -118 67 -159 105 -15 14 -39 51 -53 81 -44
98 -108 134 -272 150 -208 21 -242 35 -301 127 -51 79 -84 97 -163 90 -56 -5
-60 -4 -69 20 -5 13 -9 35 -9 48 0 15 -15 38 -40 61 -28 26 -49 61 -72 117
-34 84 -57 112 -161 200 -61 51 -98 67 -159 67 -27 0 -38 -4 -38 -15z"/>
<path d="M8632 6696 c-10 -22 -8 -24 16 -29 15 -3 47 -13 72 -22 24 -9 80 -22
123 -28 77 -11 80 -12 108 -54 17 -24 39 -47 49 -53 22 -12 220 -15 275 -4 25
4 52 -1 98 -19 51 -21 84 -26 188 -30 70 -2 132 -8 138 -12 7 -4 20 0 30 9 16
15 19 15 37 -5 44 -49 74 -62 162 -69 119 -11 345 -46 408 -65 76 -22 170 -30
178 -16 13 21 -13 38 -67 45 -28 4 -108 18 -177 31 -242 46 -299 55 -353 55
-45 0 -61 5 -91 29 -20 16 -46 41 -57 55 -23 30 -44 33 -57 10 -7 -13 -31 -16
-128 -18 -111 -2 -124 0 -188 27 -55 23 -77 27 -115 22 -70 -9 -254 -10 -268
-2 -7 4 -20 24 -29 44 -19 38 -62 63 -113 63 -46 0 -164 30 -182 46 -23 21
-44 17 -57 -10z"/>
<path d="M7749 6384 c-35 -24 -38 -24 -75 -10 -70 26 -109 28 -134 8 l-24 -19
50 -8 c27 -4 64 -13 83 -21 48 -20 77 -17 127 12 35 20 52 25 79 20 42 -8 52
-25 54 -95 1 -29 3 -57 6 -60 3 -6 29 -7 73 -2 21 2 13 21 -13 31 -22 8 -25
15 -24 53 2 50 -22 94 -58 108 -44 17 -106 9 -144 -17z"/>
<path d="M8466 6379 c-3 -17 -6 -44 -6 -59 0 -57 69 -180 101 -180 27 0 24 14
-18 81 -23 38 -39 80 -45 117 -11 69 -23 85 -32 41z"/>
<path d="M7152 6104 c-5 -10 -8 -40 -5 -66 6 -50 6 -50 -50 -62 -15 -4 -34
-14 -42 -24 -8 -9 -23 -28 -34 -42 -16 -20 -22 -23 -32 -12 -35 33 -121 -6
-152 -70 -13 -27 -26 -37 -51 -42 -57 -11 -79 -45 -85 -134 -5 -59 -12 -88
-34 -124 -31 -54 -37 -111 -10 -106 9 2 20 17 25 33 4 17 19 52 34 79 18 32
28 70 32 112 5 73 22 94 79 103 34 6 39 11 53 51 19 56 61 82 89 56 25 -23 78
-21 86 3 10 33 45 71 65 71 10 0 32 11 47 24 23 20 28 32 27 68 0 24 -8 56
-16 72 -14 28 -16 28 -26 10z"/>
<path d="M7989 6082 c-8 -53 -5 -85 11 -104 18 -23 19 -23 175 -16 49 2 67 -4
109 -39 25 -21 58 -48 74 -60 21 -16 34 -40 47 -85 31 -115 83 -189 121 -174
22 8 17 32 -10 44 -18 8 -30 31 -51 99 -38 119 -50 140 -88 159 -17 9 -54 37
-80 61 l-49 45 -106 -3 -107 -4 -3 36 c-2 27 -9 38 -23 42 -10 3 -19 2 -20 -1z"/>
<path d="M3699 5969 c4 -12 25 -33 46 -48 33 -23 41 -36 60 -101 28 -96 51
-140 74 -140 29 0 32 11 12 44 -11 17 -31 70 -46 118 -24 81 -29 89 -71 118
-55 37 -87 40 -75 9z"/>
<path d="M10350 5846 c-76 -27 -146 -61 -155 -76 -8 -13 -70 -13 -119 1 -52
14 -107 -7 -188 -72 -68 -55 -61 -52 -144 -49 -42 1 -72 -4 -95 -15 -27 -15
-48 -16 -130 -10 -81 5 -103 4 -130 -10 -20 -11 -70 -20 -132 -24 -88 -6 -101
-9 -119 -30 -17 -21 -17 -26 -4 -39 13 -13 18 -12 42 7 21 17 40 21 96 21 42
0 90 7 123 19 44 16 62 17 97 9 64 -15 118 -11 170 12 34 15 57 18 91 14 63
-9 83 -2 152 52 97 75 108 78 187 64 l68 -12 120 56 c66 31 131 56 144 56 37
0 76 18 76 35 0 23 -73 19 -150 -9z"/>
<path d="M8552 5557 c-43 -46 -65 -116 -70 -223 -4 -90 -3 -102 13 -108 10 -3
20 -4 23 -2 2 3 6 38 9 78 8 138 34 228 66 228 19 0 57 -43 57 -65 0 -26 75
-95 139 -127 57 -29 79 -27 111 13 27 32 42 27 54 -21 13 -53 26 -55 111 -15
39 19 57 35 70 61 12 26 14 39 6 47 -6 6 -12 9 -14 6 -70 -93 -101 -119 -119
-101 -5 5 -12 31 -16 58 -6 43 -10 49 -32 52 -18 2 -36 -8 -65 -38 -21 -22
-45 -40 -53 -40 -7 0 -37 15 -66 34 -41 26 -58 45 -79 90 -17 36 -39 63 -59
76 -42 26 -60 25 -86 -3z"/>
<path d="M1100 5472 c0 -10 -12 -38 -28 -63 -54 -86 -56 -97 -28 -138 14 -20
34 -57 45 -83 11 -26 36 -73 56 -104 53 -83 72 -138 84 -250 6 -54 18 -155 25
-222 13 -117 13 -127 -6 -180 -11 -32 -25 -63 -32 -69 -19 -20 -175 -56 -217
-50 -20 3 -42 0 -48 -6 -5 -5 -27 -17 -47 -26 -27 -12 -47 -33 -73 -76 -25
-42 -48 -66 -74 -78 -43 -22 -47 -39 -12 -55 22 -10 29 -8 58 17 18 16 46 55
62 86 33 64 49 73 140 85 70 9 178 34 217 49 20 7 36 28 57 73 40 88 41 93 25
225 -41 363 -48 397 -107 480 -18 26 -55 90 -80 141 l-47 92 22 41 c63 112 59
101 40 115 -23 18 -32 17 -32 -4z"/>
<path d="M8446 5130 c-13 -43 -28 -68 -51 -88 -31 -26 -55 -72 -38 -72 45 0
113 78 136 157 16 54 14 63 -13 63 -11 0 -22 -18 -34 -60z"/>
<path d="M10469 4786 c-2 -2 -36 -6 -76 -9 -49 -4 -89 -13 -125 -31 -53 -26
-228 -142 -260 -172 -9 -9 -21 -13 -27 -9 -6 3 -21 3 -32 0 -35 -11 -2 -24 45
-17 50 6 96 28 201 97 110 72 131 81 201 88 80 8 115 22 108 42 -6 14 -25 20
-35 11z"/>
<path d="M8131 4706 c-6 -7 -15 -34 -20 -59 -4 -26 -17 -58 -27 -73 -57 -80
-56 -76 -50 -148 4 -58 1 -80 -19 -130 -40 -103 -41 -124 -5 -225 34 -94 35
-107 10 -226 -8 -44 -19 -67 -41 -87 -37 -34 -37 -57 3 -128 31 -58 31 -58 15
-101 -29 -79 -53 -249 -42 -298 4 -21 11 -28 23 -24 14 3 17 18 19 81 1 44 13
119 27 175 32 121 32 139 1 185 -31 46 -31 65 0 86 16 10 26 29 30 53 4 21 13
72 22 114 l15 77 -32 86 c-37 98 -37 138 2 228 22 51 25 84 13 148 -6 30 -2
41 24 74 28 35 46 80 66 167 7 30 -16 47 -34 25z"/>
<path d="M8386 4681 c-17 -6 -14 -12 27 -50 31 -29 47 -54 52 -79 10 -55 21
-69 78 -102 38 -21 55 -38 63 -62 9 -27 18 -35 55 -46 24 -7 58 -17 75 -22 17
-6 53 -10 81 -10 51 0 92 17 233 98 30 17 63 32 73 32 11 0 43 7 73 16 41 12
54 20 54 35 0 23 -4 23 -88 3 -63 -15 -104 -33 -243 -106 -60 -32 -132 -46
-151 -30 -7 5 -33 13 -58 17 -51 8 -70 20 -70 44 0 18 -39 61 -55 61 -4 0 -23
11 -41 25 -23 18 -34 36 -39 65 -4 23 -17 49 -32 62 -14 13 -34 31 -44 41 -10
9 -20 17 -21 16 -2 0 -12 -4 -22 -8z"/>
<path d="M9788 4553 c-17 -7 -54 -13 -84 -13 -36 0 -64 -7 -89 -21 -26 -16
-44 -19 -68 -14 -17 4 -67 9 -110 12 -72 4 -78 3 -75 -14 2 -14 17 -20 68 -26
163 -19 167 -19 201 -1 20 11 55 19 84 19 32 0 65 8 93 23 23 12 54 22 67 22
14 0 25 4 25 9 0 15 -79 18 -112 4z"/>
<path d="M7835 4523 c-64 -160 -166 -371 -200 -411 -17 -21 -47 -38 -93 -53
-79 -26 -90 -34 -118 -91 -61 -124 -59 -117 -41 -135 23 -24 43 -3 52 53 10
67 58 116 133 137 75 21 109 55 171 173 60 114 144 319 139 341 -6 32 -28 25
-43 -14z"/>
<path d="M1440 3580 c-76 -7 -120 -27 -229 -106 -52 -37 -134 -58 -173 -45
-65 23 -125 14 -214 -31 -57 -29 -84 -48 -84 -60 0 -26 24 -22 99 17 67 35 67
35 186 33 110 -3 124 -1 165 21 25 13 59 35 75 49 59 50 144 82 216 82 52 0
68 4 73 16 8 21 -1 34 -22 32 -9 0 -51 -4 -92 -8z"/>
<path d="M10405 3473 c-62 -14 -93 -30 -132 -66 -42 -38 -45 -40 -81 -29 -20
6 -58 14 -84 17 l-48 7 0 -33 c0 -24 3 -30 11 -22 10 10 77 1 99 -12 4 -2 -27
-40 -70 -84 -91 -95 -156 -124 -251 -114 -69 7 -95 -6 -119 -59 -14 -31 -15
-44 -7 -63 11 -22 12 -21 37 29 l26 51 79 0 c99 1 184 31 218 77 12 17 79 79
149 139 97 82 137 110 165 115 75 12 98 21 98 35 0 15 -51 22 -90 12z"/>
<path d="M9436 2842 c-2 -4 -7 -59 -10 -123 -7 -119 -5 -127 40 -226 18 -40
18 -77 -2 -143 -20 -68 -15 -99 32 -194 37 -74 38 -78 22 -104 -26 -42 -64
-48 -191 -28 -62 9 -129 19 -151 22 -26 4 -40 12 -43 25 -8 29 -43 24 -43 -5
0 -29 22 -54 53 -61 63 -15 200 -37 257 -41 73 -6 120 11 151 56 34 46 31 77
-11 165 -44 89 -47 109 -25 181 21 68 19 87 -12 152 -28 58 -29 69 -33 303 0
17 -26 33 -34 21z"/>
<path d="M1287 2180 c-14 -11 -30 -20 -35 -20 -5 0 -15 -6 -21 -14 -6 -8 -51
-26 -99 -41 -48 -14 -131 -40 -184 -57 -99 -31 -141 -59 -121 -79 8 -8 29 -4
75 14 35 14 111 40 170 57 132 38 166 52 223 92 49 35 52 40 31 57 -10 8 -19
6 -39 -9z"/>
<path d="M1795 1460 c-12 -25 -32 -54 -44 -64 -24 -22 -28 -46 -7 -46 21 0 64
38 72 63 8 28 43 67 60 67 7 0 15 4 18 9 3 5 -13 11 -35 13 -40 4 -41 2 -64
-42z"/>
<path d="M5224 1348 c-8 -12 129 -143 164 -158 30 -13 51 -2 87 45 26 35 27
38 10 53 -12 12 -19 14 -22 5 -8 -21 -44 -63 -54 -63 -6 0 -34 22 -62 48 -60
56 -113 86 -123 70z"/>
<path d="M1451 1225 c-60 -52 -64 -126 -12 -257 16 -41 35 -103 42 -139 16
-86 41 -132 109 -205 31 -34 78 -96 104 -138 25 -43 74 -105 109 -139 34 -35
70 -75 80 -90 20 -30 47 -36 47 -10 0 27 -59 110 -108 152 -28 23 -67 73 -96
122 -28 46 -79 114 -114 151 -63 65 -66 71 -83 152 -10 47 -32 119 -48 161
-22 53 -31 93 -31 132 0 48 3 58 30 81 55 48 27 74 -29 27z"/>
<path d="M1826 1168 c-8 -13 -18 -41 -22 -63 -5 -30 -20 -52 -59 -90 -29 -27
-55 -60 -59 -72 -11 -34 10 -94 51 -145 21 -26 56 -69 78 -97 54 -66 70 -73
62 -24 -5 27 -21 52 -61 92 -54 56 -86 113 -86 155 0 14 17 37 46 61 48 41 62
66 73 125 5 25 14 39 34 48 33 16 27 32 -13 32 -20 0 -34 -8 -44 -22z"/>
<path d="M8723 1114 c-9 -25 16 -39 109 -58 46 -9 102 -22 125 -28 24 -6 66
-8 93 -6 28 3 53 2 55 -2 2 -4 -29 -36 -69 -71 -102 -88 -128 -137 -134 -253
-2 -50 -8 -98 -13 -107 -4 -9 -11 -45 -15 -80 -5 -56 -2 -78 25 -164 41 -127
45 -134 60 -107 8 16 7 34 -9 84 -29 92 -36 193 -16 248 10 28 16 78 16 132
l0 87 125 133 c125 131 145 165 95 161 -14 -2 -58 -6 -98 -9 -47 -5 -93 -2
-130 6 -80 18 -174 40 -195 46 -10 3 -20 -1 -24 -12z"/>
<path d="M3626 629 c-8 -12 -12 -27 -10 -34 3 -7 1 -16 -5 -20 -19 -11 -11
-59 20 -115 28 -52 43 -126 41 -203 -1 -22 3 -28 16 -25 16 3 23 24 14 42 -3
5 -4 41 -3 80 2 60 -2 79 -24 120 -23 44 -25 56 -19 113 7 67 -3 81 -30 42z"/>
</g>
</svg>
